<?xml version="1.0" standalone="no"?><svg xmlns="http://www.w3.org/2000/svg" viewBox="0 0 1440 320"><path fill="#a0b8be" fill-opacity="0.5" d="M0,0L21.8,21.3C43.6,43,87,85,131,96C174.5,107,218,85,262,80C305.5,75,349,85,393,96C436.4,107,480,117,524,122.7C567.3,128,611,128,655,149.3C698.2,171,742,213,785,234.7C829.1,256,873,256,916,245.3C960,235,1004,213,1047,181.3C1090.9,149,1135,107,1178,122.7C1221.8,139,1265,213,1309,229.3C1352.7,245,1396,203,1418,181.3L1440,160L1440,0L1418.2,0C1396.4,0,1353,0,1309,0C1265.5,0,1222,0,1178,0C1134.5,0,1091,0,1047,0C1003.6,0,960,0,916,0C872.7,0,829,0,785,0C741.8,0,698,0,655,0C610.9,0,567,0,524,0C480,0,436,0,393,0C349.1,0,305,0,262,0C218.2,0,175,0,131,0C87.3,0,44,0,22,0L0,0Z"></path></svg>